# xmcd CD database file
#
# Track frame offsets:
#	183
#	12033
#	24370
#	36933
#	49458
#	72408
#	85370
#	112083
#	129158
#	141933
#	153708
#
# Disc length: 2212 seconds
#
# Revision: 0
# Processed by: cddbd v1.5.2PL0 Copyright (c) Steve Scherf et al.
# Submitted via: CDex 1.51
#
DISCID=9708a20b
DTITLE=Various Artist - Bud and Blues
DYEAR=1900
DGENRE=Blues
TTITLE0=I´d Rather Go Blind - Etta James
TTITLE1=I Ain´t Supertitious - Howling Wolf
TTITLE2=Honest I Do - Jimmy Reed
TTITLE3=I´m In The Mood - John Lee Hooker
TTITLE4=I´ll Be Gone - Lightnin´ Hopkins
TTITLE5=I Am The Blues - Memphis Slim
TTITLE6=Knocking' Myself Out - Mike Bloomfield
TTITLE7=Lonesome Blues - Missisippi John Hurt
TTITLE8=Mean Mistreater - Muddy Waters
TTITLE9=Ray Charles Blues - Ray Charles
TTITLE10=Alligator Crawl - Fats Waller
EXTD=
EXTT0=
EXTT1=
EXTT2=
EXTT3=
EXTT4=
EXTT5=
EXTT6=
EXTT7=
EXTT8=
EXTT9=
EXTT10=
PLAYORDER=
